<svg width="110" height="38" viewBox="0 0 110 38" fill="none" xmlns="http://www.w3.org/2000/svg">
<path d="M15.7521 0.399998C19.9761 0.399998 23.4481 1.264 26.1681 2.992C28.8881 4.688 30.2801 7.216 30.3441 10.576V11.152H20.4081V10.96C20.4081 10 20.0561 9.2 19.3521 8.56C18.6481 7.92 17.5761 7.6 16.1361 7.6C14.7281 7.6 13.6401 7.808 12.8721 8.224C12.1361 8.64 11.7681 9.152 11.7681 9.76C11.7681 10.624 12.2801 11.264 13.3041 11.68C14.3281 12.096 15.9761 12.528 18.2481 12.976C20.9041 13.52 23.0801 14.096 24.7761 14.704C26.5041 15.28 28.0081 16.24 29.2881 17.584C30.5681 18.928 31.2241 20.752 31.2561 23.056C31.2561 26.96 29.9281 29.856 27.2721 31.744C24.6481 33.632 21.1281 34.576 16.7121 34.576C11.5601 34.576 7.54413 33.712 4.66412 31.984C1.81613 30.256 0.392125 27.2 0.392125 22.816H10.4241C10.4241 24.48 10.8561 25.6 11.7201 26.176C12.5841 26.72 13.9281 26.992 15.7521 26.992C17.0961 26.992 18.2001 26.848 19.0641 26.56C19.9601 26.272 20.4081 25.68 20.4081 24.784C20.4081 23.984 19.9121 23.392 18.9201 23.008C17.9601 22.592 16.3761 22.16 14.1681 21.712C11.4801 21.136 9.25613 20.544 7.49613 19.936C5.73613 19.296 4.20013 18.256 2.88813 16.816C1.57613 15.376 0.920125 13.424 0.920125 10.96C0.920125 7.344 2.31213 4.688 5.09613 2.992C7.91213 1.264 11.4641 0.399998 15.7521 0.399998ZM52.9368 0.399998C58.6328 0.399998 63.0328 1.856 66.1368 4.768C69.2408 7.68 70.7928 11.92 70.7928 17.488C70.7928 23.056 69.2408 27.296 66.1368 30.208C63.0328 33.12 58.6328 34.576 52.9368 34.576C47.2408 34.576 42.8408 33.136 39.7368 30.256C36.6648 27.344 35.1288 23.088 35.1288 17.488C35.1288 11.888 36.6648 7.648 39.7368 4.768C42.8408 1.856 47.2408 0.399998 52.9368 0.399998ZM52.9368 8.32C50.6648 8.32 48.9368 9.008 47.7528 10.384C46.5688 11.76 45.9768 13.616 45.9768 15.952V19.024C45.9768 21.36 46.5688 23.216 47.7528 24.592C48.9368 25.968 50.6648 26.656 52.9368 26.656C55.2088 26.656 56.9368 25.968 58.1208 24.592C59.3368 23.216 59.9448 21.36 59.9448 19.024V15.952C59.9448 13.616 59.3368 11.76 58.1208 10.384C56.9368 9.008 55.2088 8.32 52.9368 8.32ZM96.9925 34L95.6005 29.344H84.0325L82.6405 34H71.7925L83.8405 0.975999H96.1765L108.225 34H96.9925ZM86.2405 21.952H93.3925L89.9365 10.192H89.7445L86.2405 21.952Z" fill="white"/>
<path d="M15.7521 0.399998C19.9761 0.399998 23.4481 1.264 26.1681 2.992C28.8881 4.688 30.2801 7.216 30.3441 10.576V11.152H20.4081V10.96C20.4081 10 20.0561 9.2 19.3521 8.56C18.6481 7.92 17.5761 7.6 16.1361 7.6C14.7281 7.6 13.6401 7.808 12.8721 8.224C12.1361 8.64 11.7681 9.152 11.7681 9.76C11.7681 10.624 12.2801 11.264 13.3041 11.68C14.3281 12.096 15.9761 12.528 18.2481 12.976C20.9041 13.52 23.0801 14.096 24.7761 14.704C26.5041 15.28 28.0081 16.24 29.2881 17.584C30.5681 18.928 31.2241 20.752 31.2561 23.056C31.2561 26.96 29.9281 29.856 27.2721 31.744C24.6481 33.632 21.1281 34.576 16.7121 34.576C11.5601 34.576 7.54413 33.712 4.66412 31.984C1.81613 30.256 0.392125 27.2 0.392125 22.816H10.4241C10.4241 24.48 10.8561 25.6 11.7201 26.176C12.5841 26.72 13.9281 26.992 15.7521 26.992C17.0961 26.992 18.2001 26.848 19.0641 26.56C19.9601 26.272 20.4081 25.68 20.4081 24.784C20.4081 23.984 19.9121 23.392 18.9201 23.008C17.9601 22.592 16.3761 22.16 14.1681 21.712C11.4801 21.136 9.25613 20.544 7.49613 19.936C5.73613 19.296 4.20013 18.256 2.88813 16.816C1.57613 15.376 0.920125 13.424 0.920125 10.96C0.920125 7.344 2.31213 4.688 5.09613 2.992C7.91213 1.264 11.4641 0.399998 15.7521 0.399998ZM52.9368 0.399998C58.6328 0.399998 63.0328 1.856 66.1368 4.768C69.2408 7.68 70.7928 11.92 70.7928 17.488C70.7928 23.056 69.2408 27.296 66.1368 30.208C63.0328 33.12 58.6328 34.576 52.9368 34.576C47.2408 34.576 42.8408 33.136 39.7368 30.256C36.6648 27.344 35.1288 23.088 35.1288 17.488C35.1288 11.888 36.6648 7.648 39.7368 4.768C42.8408 1.856 47.2408 0.399998 52.9368 0.399998ZM52.9368 8.32C50.6648 8.32 48.9368 9.008 47.7528 10.384C46.5688 11.76 45.9768 13.616 45.9768 15.952V19.024C45.9768 21.36 46.5688 23.216 47.7528 24.592C48.9368 25.968 50.6648 26.656 52.9368 26.656C55.2088 26.656 56.9368 25.968 58.1208 24.592C59.3368 23.216 59.9448 21.36 59.9448 19.024V15.952C59.9448 13.616 59.3368 11.76 58.1208 10.384C56.9368 9.008 55.2088 8.32 52.9368 8.32ZM96.9925 34L95.6005 29.344H84.0325L82.6405 34H71.7925L83.8405 0.975999H96.1765L108.225 34H96.9925ZM86.2405 21.952H93.3925L89.9365 10.192H89.7445L86.2405 21.952Z" fill="black" fill-opacity="0.12"/>
<path d="M13.8685 35.0203C29.5359 33.5275 45.2033 32.0346 64.4826 30.1388C83.7618 28.2431 106.178 25.9896 103.643 26.3091C101.108 26.6285 72.9414 29.5893 49.2472 30.4723C25.553 31.3553 7.18435 30.0708 15.235 30.6338C23.2856 31.1967 58.3121 33.646 76.5404 34.859C94.7688 36.072 95.1375 35.9746 95.6962 35.8269C96.9924 35.4843 98.6269 35.7143 100.267 36.3893C101.033 36.6333 101.663 36.6774 102.313 36.7228" stroke="#0FBBFF" stroke-linecap="round"/>
<path d="M5.99999 33.853C6.01982 33.7735 6.03964 33.694 23.0038 33.6997C39.9679 33.7054 73.8757 33.7988 109.181 34.2431" stroke="#0FBBFF" stroke-linecap="round"/>
</svg>
